<?xml version="1.0" encoding="utf-8"?>
<!-- Generator: Adobe Illustrator 27.2.0, SVG Export Plug-In . SVG Version: 6.00 Build 0)  -->
<svg version="1.1" id="Layer_1" xmlns="http://www.w3.org/2000/svg" xmlns:xlink="http://www.w3.org/1999/xlink" x="0px" y="0px"
	 viewBox="0 0 512 512" style="enable-background:new 0 0 512 512;" xml:space="preserve">
<style type="text/css">
	.st0{fill:#00ACD7;}
	.st1{fill:#FFFFFF;}
	.st2{fill:none;stroke:#FFFFFF;stroke-width:13;stroke-miterlimit:10;}
</style>
<path class="st0" d="M507.2,253.1c-24.7,6.6-50.7,10.1-77.5,10.1c-139.4,0-257.1-94.7-292.1-223.2h246.6L507.2,253.1z"/>
<path class="st0" d="M507.7,269.6L384.1,483.7H282.6c0-86-69.7-155.7-155.7-155.7c-28.1,0-54.4,7.4-77.1,20.4l-50-86.6L123.1,48.2
	c14.7,51.5,42.3,98.7,81.2,137.6c60.2,60.2,140.2,93.4,225.4,93.4C456.3,279.2,482.5,275.9,507.7,269.6z"/>
<polygon class="st0" points="-303.8,-719.5 -560,-719.5 -688.1,-497.6 -560,-275.8 -303.8,-275.8 -175.7,-497.6 "/>
<circle class="st1" cx="-613.8" cy="-267.1" r="155.7"/>
<circle class="st2" cx="-258.2" cy="-799" r="310.7"/>
</svg>
